<?xml version="1.0" encoding="UTF-8"?>
<svg version="1.1" viewBox="0 0 2048 706" width="913" height="315" xmlns="http://www.w3.org/2000/svg">
  <path transform="translate(958,4)" d="m0 0h1069l19 1v604l-12 1h-65v89h-1134l-1-1v-79l1-14h25l1 1 1 65h1078v-442l-1-132h-1078v89l-1 1h-24l-1-1-1-12v-102l92-1 1-66zm-3 27v41h1014v511l32 1h17l1-116v-411l-1-26z" fill="#FEFEFE"/>
  <path transform="translate(834,242)" d="m0 0h115l19 3 12 6 8 8 6 12 2 9v105l-3 16-4 10-7 8-10 6-12 4-6 1h-133l-14-5-10-9-6-10-3-9-1-10v-103l2-13 5-10 6-7 11-7 8-3zm6 30-9 3-5 5-4 9v94l3 9 7 6 6 3 7 1h89l14-2 8-5 3-4 2-7v-95l-3-8-8-7-7-2z" fill="#FEFEFE"/>
  <path transform="translate(72,242)" d="m0 0h55l20 2 15 4 10 7 7 7 5 8 4 13 1 8v17l-3 14-4 10-8 10-8 7-9 5-15 4 8 10 10 15 12 16 11 16 7 10 1 5h-42l-6-10-22-33-9-13-8-12-1-1h-64v68l-1 1h-35l-1-1 1-186zm-34 30v58h89l9-2 9-6 5-6 2-5v-21l-5-10-9-6-12-2z" fill="#FEFEFE"/>
  <path transform="translate(1121,242)" d="m0 0h97l16 2 10 4 9 7 6 9 3 10 1 16-1 1h-35l-3-12-4-4-6-2h-88l-8 2-5 5-2 4-1 6v16l3 10 8 5 6 1 96 1 14 3 10 6 8 8 5 9 2 9v35l-4 16-6 9-7 6-11 4-7 2h-121l-14-5-9-7-6-9-4-18v-7h35l4 9 4 5 5 2 6 1h83l8-2 5-3 3-6v-25l-4-7-7-4-5-1-95-1-13-2-12-6-9-9-5-11-1-4-1-14v-17l1-13 4-11 4-6 4-5 10-7 12-4z" fill="#FEFEFE"/>
  <path transform="translate(286,242)" d="m0 0h171v30h-137v48l3-1h125l5 1v29l-11 1h-121l-1 52 137-1v29h-172v-187z" fill="#FEFEFE"/>
  <path transform="translate(1297,289)" d="m0 0h132l10 2 8 4 11 10 5 10 2 13v102h-33v-13l-11 8-13 5h-94l-10-4-6-4-8-9-4-10-1-5v-24l3-12 5-8 7-7 8-4 7-2 116-1-2-11-4-6-5-4-123-1zm31 80-7 4-2 3-1 5v8l3 8 5 4 6 1h68l12-1 10-4 7-6 3-8v-13l-1-1z" fill="#FEFEFE"/>
  <path transform="translate(616,242)" d="m0 0h45l23 1 15 3 8 4 9 7 6 7 7 14 2 7 1 10v18l-2 13-5 13-6 9-9 8-14 7-12 3-8 1h-97v62l-1 1h-35v-187zm-38 30v65h93l10-3 10-9 4-8 1-4v-18l-3-10-8-9-8-3-11-1z" fill="#FEFEFE"/>
  <path transform="translate(1721,289)" d="m0 0h98l11 2 9 5 8 8 6 12 2 11v41l-1 7-1 1h-135l1 16 2 4 7 4 9 1 117 1 1 27-1 1h-140l-13-5-8-7-5-7-3-9-1-35 1-48 5-12 9-10 8-5 6-2zm9 29-9 6-3 6v17l1 1 103-1v-11l-2-9-5-6-6-3z" fill="#FEFEFE"/>
  <path transform="translate(958,4)" d="m0 0h1069l19 1v604l-12 1h-65v89h-1134l-1-1v-79l1-14h25l1 1 1 65h1078v-442l-1-132h-1078v89l-1 1h-24l-1-1-1-12v-102l92-1 1-66zm-30 2v67h-92v112h24v-90h1082v578h-1082v-66h-24v90h1132v-88l76-1v-602z" fill="#FEFEFE"/>
  <path transform="translate(1472,289)" d="m0 0h38l4 5 6 11 12 21 13 22 10 18 8 13 9 15v2l2-1 6-11 16-28 9-15 11-19 9-15 7-11 3-6 1-1h40l-1 4-15 26-11 18-33 55-13 23-9 14-1 1h-40l-5-8-16-26-15-26-18-30-17-28-9-16-2-6z" fill="#FEFEFE"/>
  <path transform="translate(954,29)" d="m0 0h1065l1 1v555h-53v-512l-1013 1-1-1v-43zm1 2v41h1014v511l32 1h17l1-116v-411l-1-26z" fill="#FEFEFE"/>
  <path transform="translate(622,485)" d="m0 0h10l5 3 12 36 4 11v2h2l1-7 8-24 7-18 5-3h11v77l-1 1h-12l-1-1-1-45-12 36-4 8-6-2-8-16-8-24v-4h-2l1 2v21l-1 25h-12v-76z" fill="#FEFEFE"/>
  <path transform="translate(999,485)" d="m0 0h21l11 2 6 4 6 7 2 7-1 12-5 10-5 3-4 2 7 10 12 17 1 3-6 1h-9l-6-7-9-15-5-7-6-1-1 29-1 1h-12l-1-1v-75zm21 13-12 1v22l1 1h12l8-5 2-5-1-8-6-5z" fill="#FEFEFE"/>
  <path transform="translate(724,484)" d="m0 0h11l9 3 6 4 7 7 5 10 2 12v11l-4 13-6 10-7 6-9 4h-16l-12-5-8-8-5-10-2-8v-17l4-13 6-9 7-6 7-3zm1 13-8 4-6 8-2 6-1 13 2 10 4 7 7 6 11 1 7-2 5-4 5-10 1-6v-9l-2-11-4-6-7-6-3-1z" fill="#FEFEFE"/>
  <path transform="translate(786,485)" d="m0 0h14l12 3 10 7 6 9 4 13v12l-4 15-6 8-8 7-9 3-11 1h-21l-1-1v-75l1-1zm0 13-1 1v52h14l9-3 5-5 4-8 1-5v-10l-2-9-4-6-5-4-8-3z" fill="#FEFEFE"/>
  <path transform="translate(954,34)" d="m0 0h1v38h1014v511h44l5 1v-55l2-1v57h-53v-512l-1013 1-1-1v-38z" fill="#FEFEFE"/>
  <path transform="translate(946,485)" d="m0 0h39l1 1v12l-2 1h-30l1 19h20l5 1v11l-4 1-22-1 1 20 32 1v11l-29 1h-15l-2-4v-73z" fill="#FEFEFE"/>
  <path transform="translate(286,242)" d="m0 0h171v30h-137v48l3-1h125l5 1v29l-11 1h-121l-1 52 137-1v29h-172v-187zm1 2-1 6v178h170v-25h-137v-55h133v-27h-134l1-50h136l1-1v-25l-1-1z" fill="#FEFEFE"/>
  <path transform="translate(867,485)" d="m0 0h43l1 7-1 6-2 1h-30l1 20 24 1v11l-24 1-1 30-1 1h-11l-1-4v-69z" fill="#FEFEFE"/>
  <path transform="translate(716,397)" d="m0 0h42v33h-42z" fill="#FEFEFE"/>
  <path transform="translate(476,397)" d="m0 0h39l1 1v32h-40z" fill="#FEFEFE"/>
  <path transform="translate(1721,289)" d="m0 0h98l11 2 9 5 8 8 6 12 2 11v41l-1 7-1 1h-135l1 16 2 4 7 4 9 1 117 1 1 27-1 1h-140l-13-5-8-7-5-7-3-9-1-35 1-48 2-3v80l2 11 6 10 7 6 11 4 139 1 1-25h-122l-8-3-5-5-2-8v-10l1-3h136l-1-54-4-9-6-9-7-6-11-4h-109l-11 4h-3l6-4 6-2z" fill="#FEFEFE"/>
  <path transform="translate(208,397)" d="m0 0h39v32l-1 1h-38z" fill="#FEFEFE"/>
  <path transform="translate(840,485)" d="m0 0h13l1 2v75l-1 1h-12l-1-5z" fill="#FEFEFE"/>
  <path transform="translate(926,485)" d="m0 0 3 1v77h-12l-1-1v-76z" fill="#FEFEFE"/>
  <path transform="translate(1636,289)" d="m0 0h40l-1 4-1-2h-38l-2 6-15 25-14 24-12 19-1-2 13-22 11-19 9-15 7-11 3-6z" fill="#FEFEFE"/>
  <path transform="translate(1472,289)" d="m0 0h38l2 4-2-1-37-1 8 15 17 28 9 15 10 17-1 2-8-13-9-15-17-28-9-16-2-6z" fill="#FEFEFE"/>
  <path transform="translate(1516,300)" d="m0 0 3 3 13 23 13 22 10 18 8 13 9 15-1 2-7-10-24-42-12-20-12-22z" fill="#FEFEFE"/>
  <path transform="translate(158,382)" d="m0 0 5 5 14 19 11 16 3 5v3h-42l-2-6 3 3 39 1-6-9-10-14-9-13-6-8z" fill="#FEFEFE"/>
  <path transform="translate(578,365)" d="m0 0 1 2v62l-1 1h-35v-36h1l1 34h31l1-62z" fill="#FEFEFE"/>
  <path transform="translate(822,287)" d="m0 0 1 2v94l3 9 6 5 4 2v2l-5-1-6-5-4-10v-97z" fill="#FEFEFE"/>
  <path transform="translate(215,397)" d="m0 0h32v29l-2 1v-28h-30z" fill="#FEFEFE"/>
  <path transform="translate(804,251)" d="m0 0 2 1-10 10-5 11-1 5-1 27-2 1v-22l2-13 5-10 6-7z" fill="#FEFEFE"/>
  <path transform="translate(1472,289)" d="m0 0h38l2 4-2-1h-39z" fill="#FEFEFE"/>
  <path transform="translate(673,509)" d="m0 0 2 2v46l1 4 3 2h-5l-1-1-1-51z" fill="#FEFEFE"/>
  <path transform="translate(514,427)" d="m0 0 2 1v2h-40v-2z" fill="#FEFEFE"/>
  <path transform="translate(1553,366)" d="m0 0 3 1 13 22 3 5-1 2-7-10-11-19z" fill="#FEFEFE"/>
  <path transform="translate(804,251)" d="m0 0 2 1-10 10-5 11-2 4-1-2 4-11 8-10z" fill="#FEFEFE"/>
  <path transform="translate(1092,250)" d="m0 0v3l-9 9-5 12-1 4h-2l2-9 5-9 5-6z" fill="#FEFEFE"/>
  <path transform="translate(1422,318)" d="m0 0 5 3 4 6 2 7v8h-2l-1-10-4-8-4-4z" fill="#FEFEFE"/>
  <path transform="translate(1430,387)" d="m0 0h2l-1 4-5 5-9 5h-3v-2l9-4 5-4z" fill="#FEFEFE"/>
  <path transform="translate(1583,379)" d="m0 0 1 2-10 18-2-1v-2l2-1 6-11z" fill="#FEFEFE"/>
  <path transform="translate(1428,417)" d="m0 0 2 1-7 6-9 4-3-1 15-8z" fill="#FEFEFE"/>
  <path transform="translate(824,392)" d="m0 0 4 2 8 5v2l-5-1-6-5z" fill="#FEFEFE"/>
</svg>